<svg width="99" height="43" viewBox="0 0 99 43" fill="none" xmlns="http://www.w3.org/2000/svg">
<rect x="10" y="10.0632" width="22.8733" height="22.8733" rx="11.4366" fill="#008CEB"/>
<path d="M28.2841 21.6389V24.8577C28.2841 25.0671 28.1941 25.1111 28.0182 25.0085C27.7828 24.8673 27.5379 24.7427 27.2852 24.6357C26.5219 24.3317 25.6952 24.2216 24.8789 24.3153C23.988 24.4309 23.1137 24.6502 22.2737 24.9687C21.436 25.2514 20.615 25.5572 19.7606 25.7938C19.0529 26.004 18.3164 26.1008 17.5784 26.0808C16.7605 26.049 15.9657 25.8012 15.2747 25.3624C15.1879 25.3101 15.1167 25.2356 15.0684 25.1464C15.0202 25.0573 14.9967 24.9569 15.0004 24.8556C15.0004 22.7474 15.0004 20.6392 15.0004 18.531C15.0004 18.4284 15.0004 18.3069 15.0925 18.2546C15.1847 18.2022 15.2789 18.2881 15.3585 18.3404C16.1088 18.8478 16.9974 19.1111 17.903 19.0944C18.5505 19.0678 19.1909 18.9486 19.8046 18.7404C20.6758 18.4703 21.5177 18.1122 22.3742 17.8085C23.041 17.5523 23.7246 17.3423 24.4203 17.1802C25.0173 17.0404 25.6368 17.0257 26.2398 17.1371C26.8428 17.2485 27.4162 17.4835 27.9239 17.8274C28.0403 17.8987 28.1356 17.9997 28.2001 18.1201C28.2645 18.2404 28.2957 18.3758 28.2904 18.5122C28.2904 19.5593 28.2904 20.6064 28.2904 21.6535L28.2841 21.6389Z" fill="#ECF0F1"/>
<path fill-rule="evenodd" clip-rule="evenodd" d="M41.2251 27.369C42.7455 27.4779 44.5173 26.2967 45.1414 25.6224C47.311 23.2747 47.3633 19.88 45.1791 17.4213C44.3665 16.5061 42.4565 15.4946 41.2482 15.637H36.8733V27.3543L41.2356 27.369H41.2251ZM39.3403 24.8307V18.1606C40.0251 18.1157 40.7121 18.1157 41.3969 18.1606C41.9357 18.2231 42.4496 18.422 42.89 18.7386C45.4031 20.4559 44.356 24.5501 41.355 24.8245C40.6843 24.8716 40.0112 24.8737 39.3403 24.8307Z" fill="#008CEB"/>
<path fill-rule="evenodd" clip-rule="evenodd" d="M50.8222 27.3919H53.308C53.308 26.8642 53.241 25.2495 53.3311 24.8662H58.2609L58.2777 27.3898H60.7677C60.7552 25.9909 60.7677 24.594 60.7677 23.2013C60.7677 22.0076 60.8787 20.2987 60.5583 19.239C60.2712 18.1993 59.6522 17.2819 58.7956 16.6264C57.9391 15.9709 56.8918 15.6132 55.8132 15.6077C54.7346 15.6023 53.6837 15.9494 52.8206 16.5962C51.9574 17.243 51.3292 18.1541 51.0316 19.1909C50.6986 20.2799 50.8117 21.9448 50.8117 23.1573C50.8117 24.5563 50.7803 25.9909 50.8117 27.3856L50.8222 27.3919ZM53.3101 22.328C53.2934 21.2809 53.1866 20.1458 53.6787 19.3563C53.8947 18.9861 54.2039 18.6789 54.5756 18.4654C54.9473 18.2519 55.3684 18.1396 55.7971 18.1396C56.2257 18.1396 56.6468 18.2519 57.0185 18.4654C57.3902 18.6789 57.6994 18.9861 57.9154 19.3563C58.4033 20.194 58.286 21.2579 58.2777 22.3238L53.3101 22.328Z" fill="#008CEB"/>
<path fill-rule="evenodd" clip-rule="evenodd" d="M64.8534 20.2236L64.8178 21.9681C64.8178 23.4341 64.7466 26.1712 64.8178 27.3629H67.2555C67.312 26.5252 67.1675 20.5754 67.3204 20.3848C67.3204 19.2288 68.5288 18.1524 69.7476 18.1482C70.3812 18.1444 70.9912 18.3878 71.4481 18.8267C71.7581 19.1095 72.2335 19.7545 72.2251 20.4058C72.3382 20.4707 72.2481 26.6885 72.2837 27.3775H74.7235L74.7047 20.2676C74.7654 19.7105 74.4303 18.8498 74.2146 18.4142C73.8146 17.5842 73.1902 16.8828 72.4121 16.3894C71.634 15.896 70.7332 15.6303 69.8119 15.6225C68.8906 15.6146 67.9855 15.8649 67.1991 16.345C66.4127 16.8251 65.7764 17.5157 65.3623 18.3388C65.1529 18.7681 64.801 19.6519 64.8534 20.2236Z" fill="#008CEB"/>
<path fill-rule="evenodd" clip-rule="evenodd" d="M78.7483 27.3771H81.2425V24.8514H86.1912L86.2059 27.3645H88.7001V23.2012C88.7001 21.9446 88.8048 20.3781 88.4907 19.241C88.2054 18.1999 87.5874 17.2807 86.7309 16.6237C85.8745 15.9667 84.8266 15.6078 83.7472 15.6019C82.6678 15.5959 81.616 15.9433 80.7524 16.5909C79.8888 17.2384 79.2607 18.1507 78.964 19.1886C78.6289 20.3111 78.742 21.9216 78.742 23.1677C78.742 24.575 78.7273 25.9907 78.742 27.398L78.7483 27.3771ZM81.2446 22.3111C81.23 21.264 81.119 20.1436 81.6111 19.3373C81.8271 18.9661 82.1376 18.6587 82.511 18.4465C82.8844 18.2342 83.3073 18.1246 83.7368 18.1289C84.164 18.1321 84.5832 18.246 84.9532 18.4597C85.3232 18.6733 85.6314 18.9793 85.8478 19.3478C86.3336 20.1855 86.2185 21.2326 86.2059 22.3132L81.2446 22.3111Z" fill="#008CEB"/>
</svg>
