<svg width="100" height="39" viewBox="0 0 100 39" fill="none" xmlns="http://www.w3.org/2000/svg">
<path d="M18.7316 28.2315C23.554 28.2315 27.4632 24.3223 27.4632 19.4999C27.4632 14.6776 23.554 10.7683 18.7316 10.7683C13.9093 10.7683 10 14.6776 10 19.4999C10 24.3223 13.9093 28.2315 18.7316 28.2315Z" fill="#00AED6"/>
<path d="M18.7316 28.2315C23.554 28.2315 27.4632 24.3223 27.4632 19.4999C27.4632 14.6776 23.554 10.7683 18.7316 10.7683C13.9093 10.7683 10 14.6776 10 19.4999C10 24.3223 13.9093 28.2315 18.7316 28.2315Z" fill="#00AED6"/>
<path fill-rule="evenodd" clip-rule="evenodd" d="M23.8174 19.2279C23.7531 18.1192 22.8095 17.268 21.7 17.3179H16.1846C15.9836 17.3179 15.8207 17.155 15.8207 16.9541C15.8207 16.7531 15.9836 16.5903 16.1846 16.5903H21.7727C21.7425 15.8354 21.2277 15.1867 20.4994 14.9858C18.8712 14.6984 17.2052 14.6984 15.577 14.9858C14.6514 15.2138 13.9591 15.9841 13.8307 16.9286C13.5724 18.6422 13.5724 20.3848 13.8307 22.0984C14.0273 23.0959 14.8189 23.8686 15.8208 24.0412C17.8419 24.2923 19.8863 24.2923 21.9074 24.0412C22.8062 23.8572 23.4863 23.1185 23.5956 22.2076C23.7765 21.2252 23.8509 20.2262 23.8174 19.2279ZM22.0056 20.4504V20.7742C22.0056 20.9751 21.8427 21.138 21.6418 21.138C21.4409 21.138 21.278 20.9751 21.278 20.7742V20.4504C21.1617 20.3484 21.0954 20.2011 21.0961 20.0465C21.0961 19.7451 21.3404 19.5008 21.6418 19.5008C21.9432 19.5008 22.1875 19.7451 22.1875 20.0465C22.1882 20.2011 22.1219 20.3484 22.0056 20.4503V20.4504Z" fill="#ECF0F1"/>
<path d="M34.3657 23.8466C35.1068 24.9038 36.3392 25.5061 37.6287 25.4411C39.1493 25.4411 40.2678 24.4697 40.2678 23.1494V22.4531H40.2309C39.3977 23.2674 38.2602 23.6932 37.0972 23.6263C35.2598 23.679 33.5373 22.7348 32.5934 21.1575C31.6496 19.5801 31.6317 17.6159 32.5467 16.0217C33.4617 14.4274 35.1668 13.452 37.0048 13.4714C38.19 13.3953 39.3549 13.8056 40.2309 14.6076H40.2678V13.6547H42.8714V23.1132C42.8714 25.8625 40.6899 27.769 37.6287 27.769C35.6236 27.8783 33.6876 27.0194 32.423 25.4596L34.3657 23.8466ZM40.1583 17.9622C40.1583 16.8623 38.912 15.854 37.5192 15.854C35.7584 15.854 34.5859 16.9177 34.5859 18.5122C34.5337 19.2677 34.8177 20.0077 35.3619 20.5344C35.9061 21.061 36.655 21.3206 37.4084 21.2437C38.9304 21.2437 40.1583 20.2901 40.1583 19.0985V17.9622ZM49.6901 13.3797C52.8621 13.3797 55.1715 15.6344 55.1715 18.5122C55.1715 21.3901 52.8621 23.6448 49.6901 23.6448C47.7761 23.7702 45.9514 22.8203 44.9564 21.1806C43.9613 19.5408 43.9613 17.4836 44.9564 15.8439C45.9514 14.2041 47.7761 13.2542 49.6901 13.3797ZM49.6901 15.7623C48.174 15.7726 46.9524 17.0082 46.9591 18.5243C46.966 20.0404 48.1987 21.2648 49.7148 21.2615C51.231 21.2582 52.4583 20.0283 52.4585 18.5122C52.4929 17.7696 52.2116 17.0471 51.6842 16.5233C51.1568 15.9994 50.4324 15.7229 49.6901 15.7623ZM56.6381 13.6547H59.2417V14.5159H59.2786C60.1294 13.7336 61.2579 13.3244 62.4123 13.3797C65.2073 13.4301 67.4482 15.7077 67.4532 18.5032C67.4583 21.2987 65.2256 23.5843 62.4308 23.6448C61.3275 23.6702 60.2504 23.3067 59.3881 22.618H59.3511V27.494H56.6381V13.6547ZM61.9916 15.7807C60.5605 15.7807 59.3511 16.7891 59.3511 17.889V19.1169C59.3511 20.2901 60.525 21.2615 62.0087 21.2615C63.5221 21.2568 64.7452 20.026 64.7405 18.5126C64.7358 16.9991 63.5051 15.776 61.9916 15.7807ZM72.5679 17.5771C74.3458 17.3391 74.8773 17.0825 74.8773 16.5873C74.8773 15.9456 74.1994 15.5612 73.1549 15.5612C72.0294 15.4659 71.0022 16.2047 70.7346 17.3021L68.168 16.7706C68.5347 14.7909 70.5698 13.3797 73.081 13.3797C75.9219 13.3797 77.6827 14.8279 77.6827 17.192V23.3698H75.244V22.3067H75.207C74.3803 23.2382 73.1678 23.7326 71.9255 23.6448C69.781 23.6448 68.2973 22.4716 68.2973 20.7484C68.2973 18.9336 69.5067 17.9992 72.5679 17.5771ZM75.0976 18.6039H75.0606C74.8219 18.9521 74.3088 19.1539 72.99 19.3919C71.394 19.6854 70.827 19.9966 70.827 20.5651C70.827 21.152 71.3031 21.4086 72.3292 21.4086C73.8882 21.4086 75.0976 20.6937 75.0976 19.7586V18.6039ZM82.5942 22.8382L78.1033 13.6547H81.092L84.0424 19.9966H84.0793L86.9941 13.6547H89.9999L83.2735 27.494H80.2848L82.5942 22.8382Z" fill="black"/>
</svg>
