<svg xmlns="http://www.w3.org/2000/svg" width="92" height="83" viewBox="0 0 92 83" fill="none">
  <path d="M61.0484 69.1921C58.189 67.5983 55.0015 64.692 51.8609 60.8014C49.5171 57.8014 48.5328 56.2077 48.7203 55.4577C49.1421 53.6764 52.8453 51.8483 55.189 52.2233C56.3609 52.4108 57.2046 53.3014 60.439 57.8483C63.7671 62.5358 65.1734 64.2233 66.5796 65.2545C67.9859 66.2858 68.0328 66.8014 66.8609 67.8327C65.0328 69.4264 62.5953 69.9889 61.0484 69.1921ZM22.5171 72.3327C21.2515 71.9577 20.0796 71.2077 19.0484 70.1296C17.5015 68.3952 17.5484 68.067 19.9859 66.0045C22.3296 64.0358 32.4078 54.1452 36.4859 49.8327L39.3921 46.7389L38.1734 46.1295C35.8296 44.9108 33.7671 43.0358 31.8921 40.5045C29.5953 37.317 25.4703 29.5826 24.2046 26.0201C23.3609 23.6764 23.3609 22.8326 24.2046 21.942C25.564 20.5358 28.3765 19.5514 30.6734 19.7389C31.7046 19.8326 32.0796 20.0201 32.6421 20.4889C33.4859 21.3326 34.8921 24.0514 37.7515 30.4733C40.189 35.9108 42.0171 39.3326 43.2359 40.7389L43.9859 41.5826L46.2359 39.0514C53.0328 31.3639 58.3296 24.2858 62.0796 18.0514C64.0953 14.6764 64.564 14.442 67.0015 15.7076C68.7359 16.5983 71.0328 18.9889 72.0171 20.8639C73.3765 23.6295 72.9546 25.4108 69.7671 29.817C63.2515 38.9108 43.7515 58.0827 32.1734 66.7546C28.3296 69.6139 23.9234 72.5671 23.4546 72.5202C23.2671 72.5202 22.7984 72.4264 22.5171 72.3327Z" fill="#FFE31A"/>
  <path d="M43.7908 15.6812C42.6266 20.5438 42.1992 24.7498 42.6825 27.9875C42.9957 29.6991 45.0724 31.4719 47.4507 31.9469C48.9829 32.2455 47.6886 29.7217 47.6469 27.9783C47.6052 26.235 48.1405 24.1652 49.8213 18.6676C51.448 13.3301 52.9976 13.8816 52.4307 12.839C51.2969 10.7538 47.8458 9.27095 46.1775 10.0242C45.469 10.3336 44.7361 11.9934 43.7908 15.6812Z" fill="#FFE31A"/>
  <path d="M16.1958 51.9147C21.1592 52.5196 25.3865 52.4669 28.5484 51.6193C30.2134 51.1139 31.7391 48.8495 31.9411 46.4326C32.0639 44.8764 29.7033 46.4488 27.9759 46.6881C26.2486 46.9273 24.1315 46.6304 18.4786 45.5843C12.991 44.5738 13.3631 42.9716 12.3915 43.6532C10.4484 45.0163 9.36685 48.6134 10.3046 50.1855C10.6924 50.8543 12.4246 51.3941 16.1958 51.9147Z" fill="#FFE31A"/>
  <path d="M76.4398 51.4656C71.5395 52.4591 67.3211 52.7394 64.1023 52.1432C62.4027 51.7704 60.7035 49.6331 60.3119 47.2396C60.0671 45.6979 62.5441 47.0796 64.2849 47.1822C66.0257 47.2848 68.1129 46.8222 73.6659 45.3344C79.057 43.8952 78.56 42.3273 79.5821 42.9303C81.6265 44.1363 82.9878 47.6371 82.1767 49.2781C81.8428 49.9753 80.1584 50.6498 76.4398 51.4656Z" fill="#FFE31A"/>
  <g filter="url(#filter0_f_80_930)">
    <path d="M61.0484 69.1921C58.189 67.5983 55.0015 64.692 51.8609 60.8014C49.5171 57.8014 48.5328 56.2077 48.7203 55.4577C49.1421 53.6764 52.8453 51.8483 55.189 52.2233C56.3609 52.4108 57.2046 53.3014 60.439 57.8483C63.7671 62.5358 65.1734 64.2233 66.5796 65.2545C67.9859 66.2858 68.0328 66.8014 66.8609 67.8327C65.0328 69.4264 62.5953 69.9889 61.0484 69.1921ZM22.5171 72.3327C21.2515 71.9577 20.0796 71.2077 19.0484 70.1296C17.5015 68.3952 17.5484 68.067 19.9859 66.0045C22.3296 64.0358 32.4078 54.1452 36.4859 49.8327L39.3921 46.7389L38.1734 46.1295C35.8296 44.9108 33.7671 43.0358 31.8921 40.5045C29.5953 37.317 25.4703 29.5826 24.2046 26.0201C23.3609 23.6764 23.3609 22.8326 24.2046 21.942C25.564 20.5358 28.3765 19.5514 30.6734 19.7389C31.7046 19.8326 32.0796 20.0201 32.6421 20.4889C33.4859 21.3326 34.8921 24.0514 37.7515 30.4733C40.189 35.9108 42.0171 39.3326 43.2359 40.7389L43.9859 41.5826L46.2359 39.0514C53.0328 31.3639 58.3296 24.2858 62.0796 18.0514C64.0953 14.6764 64.564 14.442 67.0015 15.7076C68.7359 16.5983 71.0328 18.9889 72.0171 20.8639C73.3765 23.6295 72.9546 25.4108 69.7671 29.817C63.2515 38.9108 43.7515 58.0827 32.1734 66.7546C28.3296 69.6139 23.9234 72.5671 23.4546 72.5202C23.2671 72.5202 22.7984 72.4264 22.5171 72.3327Z" fill="#FFE31A"/>
  </g>
  <g filter="url(#filter1_f_80_930)">
    <path d="M43.7908 15.6812C42.6266 20.5438 42.1992 24.7498 42.6825 27.9875C42.9957 29.6991 45.0724 31.4719 47.4507 31.9469C48.9829 32.2455 47.6886 29.7217 47.6469 27.9783C47.6052 26.235 48.1405 24.1652 49.8213 18.6676C51.448 13.3301 52.9976 13.8816 52.4307 12.839C51.2969 10.7538 47.8458 9.27095 46.1775 10.0242C45.469 10.3336 44.7361 11.9934 43.7908 15.6812Z" fill="#FFE31A"/>
  </g>
  <g filter="url(#filter2_f_80_930)">
    <path d="M16.1958 51.9147C21.1592 52.5196 25.3865 52.4669 28.5484 51.6193C30.2134 51.1139 31.7391 48.8495 31.9411 46.4326C32.0639 44.8764 29.7033 46.4488 27.9759 46.6881C26.2486 46.9273 24.1315 46.6304 18.4786 45.5843C12.991 44.5738 13.3631 42.9716 12.3915 43.6532C10.4484 45.0163 9.36685 48.6134 10.3046 50.1855C10.6924 50.8543 12.4246 51.3941 16.1958 51.9147Z" fill="#FFE31A"/>
  </g>
  <g filter="url(#filter3_f_80_930)">
    <path d="M76.4398 51.4656C71.5395 52.4591 67.3211 52.7394 64.1023 52.1432C62.4027 51.7704 60.7035 49.6331 60.3119 47.2396C60.0671 45.6979 62.5441 47.0796 64.2849 47.1822C66.0257 47.2848 68.1129 46.8222 73.6659 45.3344C79.057 43.8952 78.56 42.3273 79.5821 42.9303C81.6265 44.1363 82.9878 47.6371 82.1767 49.2781C81.8428 49.9753 80.1584 50.6498 76.4398 51.4656Z" fill="#FFE31A"/>
  </g>
  <defs>
    <filter id="filter0_f_80_930" x="8.5" y="5.50024" width="73.7476" height="76.5205" filterUnits="userSpaceOnUse" color-interpolation-filters="sRGB">
      <feFlood flood-opacity="0" result="BackgroundImageFix"/>
      <feBlend mode="normal" in="SourceGraphic" in2="BackgroundImageFix" result="shape"/>
      <feGaussianBlur stdDeviation="4.75" result="effect1_foregroundBlur_80_930"/>
    </filter>
    <filter id="filter1_f_80_930" x="32.9868" y="0.325195" width="29.063" height="41.146" filterUnits="userSpaceOnUse" color-interpolation-filters="sRGB">
      <feFlood flood-opacity="0" result="BackgroundImageFix"/>
      <feBlend mode="normal" in="SourceGraphic" in2="BackgroundImageFix" result="shape"/>
      <feGaussianBlur stdDeviation="4.75" result="effect1_foregroundBlur_80_930"/>
    </filter>
    <filter id="filter2_f_80_930" x="0.461914" y="33.9895" width="40.9839" height="27.8301" filterUnits="userSpaceOnUse" color-interpolation-filters="sRGB">
      <feFlood flood-opacity="0" result="BackgroundImageFix"/>
      <feBlend mode="normal" in="SourceGraphic" in2="BackgroundImageFix" result="shape"/>
      <feGaussianBlur stdDeviation="4.75" result="effect1_foregroundBlur_80_930"/>
    </filter>
    <filter id="filter3_f_80_930" x="50.7949" y="33.2976" width="41.1196" height="28.6565" filterUnits="userSpaceOnUse" color-interpolation-filters="sRGB">
      <feFlood flood-opacity="0" result="BackgroundImageFix"/>
      <feBlend mode="normal" in="SourceGraphic" in2="BackgroundImageFix" result="shape"/>
      <feGaussianBlur stdDeviation="4.75" result="effect1_foregroundBlur_80_930"/>
    </filter>
  </defs>
</svg>