<svg width="56" height="80" viewBox="0 0 56 80" fill="none" xmlns="http://www.w3.org/2000/svg">
<g filter="url(#filter0_f_75_82)">
<path d="M7.91339 6.00919C8.80401 5.96232 10.1165 6.10294 12.179 6.24357C27.0853 7.50919 34.9134 8.07169 39.6946 8.21232C45.4134 8.35294 46.304 8.49357 48.179 9.80607C50.2884 11.2123 50.2884 12.6186 48.1321 23.1186C47.1946 27.8529 46.5384 31.6967 46.5384 32.5404C46.5384 32.7748 46.5384 32.9623 46.4915 33.1498C46.7728 33.8998 46.9603 35.6811 47.4759 40.9311C47.9915 46.3686 48.554 51.2904 48.9759 54.5717C49.5853 55.4623 49.679 55.8373 49.5384 56.4467C49.4915 56.5873 49.3978 56.7279 49.304 56.8686C49.4446 57.7592 49.5384 58.4154 49.6321 58.6498C49.8665 59.3061 49.7259 59.5873 48.6478 60.7592C47.3353 62.1654 44.8509 63.3373 43.7259 63.0561C43.3978 62.9623 42.9759 62.3529 42.5071 61.2279C34.7259 65.8686 28.2571 69.8998 27.4134 70.6967C26.8978 71.1654 26.5696 71.1654 25.1165 70.6967C23.2884 70.0873 21.1321 68.3529 20.8978 67.2279C20.8509 66.8529 21.2728 66.1967 22.2103 65.2123C21.0384 65.3998 19.2571 65.2592 18.0384 64.7904C17.3821 64.5561 16.679 64.0873 16.4446 63.7592C15.6009 62.4467 14.1009 54.5717 13.4915 48.4779C12.9759 42.8529 12.6478 31.8373 12.6946 23.1654L12.7884 15.4311L11.6165 15.1029C11.0071 14.9154 10.0228 14.4467 9.50714 14.0717C7.53839 12.6186 5.71026 9.00919 6.03839 7.18107C6.22589 6.33732 6.41339 6.00919 7.91339 6.00919ZM38.2415 15.6654C38.054 15.7123 37.8196 15.7123 37.4446 15.7592C36.7415 15.8529 33.2259 15.9936 29.5696 16.0873L22.9603 16.2279L22.8196 24.5717C22.7259 29.2123 22.5853 33.8529 22.4915 34.8842C22.3978 36.0561 22.4446 36.8061 22.5384 36.7123C22.679 36.6654 23.4759 36.1498 24.3665 35.6342C26.6165 34.2279 31.8665 31.6967 34.8665 30.5248L37.3509 29.5404L37.3978 26.3998C37.4446 23.6342 38.1009 17.5404 38.5696 16.0404C38.6634 15.7592 38.6165 15.6654 38.2415 15.6654ZM37.2103 38.2592C30.929 40.8373 27.1321 42.6654 23.4759 44.8686L22.1165 45.6654L22.2571 50.5404C22.4446 55.9311 22.7259 58.9311 23.2884 62.2592L23.5228 63.8998C25.4915 62.0717 28.5853 59.5404 32.804 56.3061C36.179 53.6811 38.3353 52.1342 39.7415 51.2436C39.4603 50.1186 39.179 48.9467 38.8978 47.6342C37.7728 42.5248 37.2571 39.7123 37.2103 38.2592Z" fill="#FFE31A"/>
</g>
<g filter="url(#filter1_d_75_82)">
<path d="M7.91339 6.00919C8.80401 5.96232 10.1165 6.10294 12.179 6.24357C27.0853 7.50919 34.9134 8.07169 39.6946 8.21232C45.4134 8.35294 46.304 8.49357 48.179 9.80607C50.2884 11.2123 50.2884 12.6186 48.1321 23.1186C47.1946 27.8529 46.5384 31.6967 46.5384 32.5404C46.5384 32.7748 46.5384 32.9623 46.4915 33.1498C46.7728 33.8998 46.9603 35.6811 47.4759 40.9311C47.9915 46.3686 48.554 51.2904 48.9759 54.5717C49.5853 55.4623 49.679 55.8373 49.5384 56.4467C49.4915 56.5873 49.3978 56.7279 49.304 56.8686C49.4446 57.7592 49.5384 58.4154 49.6321 58.6498C49.8665 59.3061 49.7259 59.5873 48.6478 60.7592C47.3353 62.1654 44.8509 63.3373 43.7259 63.0561C43.3978 62.9623 42.9759 62.3529 42.5071 61.2279C34.7259 65.8686 28.2571 69.8998 27.4134 70.6967C26.8978 71.1654 26.5696 71.1654 25.1165 70.6967C23.2884 70.0873 21.1321 68.3529 20.8978 67.2279C20.8509 66.8529 21.2728 66.1967 22.2103 65.2123C21.0384 65.3998 19.2571 65.2592 18.0384 64.7904C17.3821 64.5561 16.679 64.0873 16.4446 63.7592C15.6009 62.4467 14.1009 54.5717 13.4915 48.4779C12.9759 42.8529 12.6478 31.8373 12.6946 23.1654L12.7884 15.4311L11.6165 15.1029C11.0071 14.9154 10.0228 14.4467 9.50714 14.0717C7.53839 12.6186 5.71026 9.00919 6.03839 7.18107C6.22589 6.33732 6.41339 6.00919 7.91339 6.00919ZM38.2415 15.6654C38.054 15.7123 37.8196 15.7123 37.4446 15.7592C36.7415 15.8529 33.2259 15.9936 29.5696 16.0873L22.9603 16.2279L22.8196 24.5717C22.7259 29.2123 22.5853 33.8529 22.4915 34.8842C22.3978 36.0561 22.4446 36.8061 22.5384 36.7123C22.679 36.6654 23.4759 36.1498 24.3665 35.6342C26.6165 34.2279 31.8665 31.6967 34.8665 30.5248L37.3509 29.5404L37.3978 26.3998C37.4446 23.6342 38.1009 17.5404 38.5696 16.0404C38.6634 15.7592 38.6165 15.6654 38.2415 15.6654ZM37.2103 38.2592C30.929 40.8373 27.1321 42.6654 23.4759 44.8686L22.1165 45.6654L22.2571 50.5404C22.4446 55.9311 22.7259 58.9311 23.2884 62.2592L23.5228 63.8998C25.4915 62.0717 28.5853 59.5404 32.804 56.3061C36.179 53.6811 38.3353 52.1342 39.7415 51.2436C39.4603 50.1186 39.179 48.9467 38.8978 47.6342C37.7728 42.5248 37.2571 39.7123 37.2103 38.2592Z" fill="#FFE31A"/>
</g>
<defs>
<filter id="filter0_f_75_82" x="0.5" y="0.5" width="54.7554" height="76.0483" filterUnits="userSpaceOnUse" color-interpolation-filters="sRGB">
<feFlood flood-opacity="0" result="BackgroundImageFix"/>
<feBlend mode="normal" in="SourceGraphic" in2="BackgroundImageFix" result="shape"/>
<feGaussianBlur stdDeviation="2.75" result="effect1_foregroundBlur_75_82"/>
</filter>
<filter id="filter1_d_75_82" x="2" y="6" width="51.7554" height="73.0483" filterUnits="userSpaceOnUse" color-interpolation-filters="sRGB">
<feFlood flood-opacity="0" result="BackgroundImageFix"/>
<feColorMatrix in="SourceAlpha" type="matrix" values="0 0 0 0 0 0 0 0 0 0 0 0 0 0 0 0 0 0 127 0" result="hardAlpha"/>
<feOffset dy="4"/>
<feGaussianBlur stdDeviation="2"/>
<feComposite in2="hardAlpha" operator="out"/>
<feColorMatrix type="matrix" values="0 0 0 0 0 0 0 0 0 0 0 0 0 0 0 0 0 0 0.25 0"/>
<feBlend mode="normal" in2="BackgroundImageFix" result="effect1_dropShadow_75_82"/>
<feBlend mode="normal" in="SourceGraphic" in2="effect1_dropShadow_75_82" result="shape"/>
</filter>
</defs>
</svg>
