<svg width="61" height="84" viewBox="0 0 61 84" fill="none" xmlns="http://www.w3.org/2000/svg">
<g filter="url(#filter0_f_98_2286)">
<path d="M10.5949 8C13.1261 8.04688 15.9855 9.40625 18.4699 11.7031C21.9855 15.0781 23.1574 19.3438 23.3917 30.2188C23.5792 37.4844 23.0636 43.625 21.6574 49.8125C21.3761 50.9844 21.2355 51.9688 21.2824 52.0156C21.3292 52.0625 22.6886 51.7812 24.2824 51.3125C28.2667 50.2344 32.1574 49.4375 36.2824 48.875C39.4699 48.4531 39.798 48.3594 39.7511 47.9375C39.7042 47.7031 39.5167 46.3438 39.3292 44.8906C38.7667 40.4844 38.4855 32.4688 38.6261 22.9062C38.7199 13.25 38.8605 11.8906 39.8917 9.875C40.8761 7.95312 42.4699 7.53125 45.1417 8.60938C48.0949 9.82812 50.8605 12.4531 51.798 14.9375C52.8761 17.8438 52.8761 19.1094 51.4699 30.5469C50.5324 38.6094 50.0636 44 49.8761 49.4375C49.7824 51.7344 49.9699 54.0781 50.4855 56.8906C50.7667 57.875 50.7199 58.0156 50.3917 58.3438C49.548 59.1875 47.0636 58.625 44.7667 57.0312L43.548 56.1875C43.4074 56.1875 43.3136 56.1875 43.2667 56.1875L40.5949 56.9844C35.0636 58.625 28.0792 61.3906 20.2042 65.1406C18.048 66.1719 16.1261 66.9688 15.7042 66.9688C15.3292 66.9688 14.5324 66.7344 13.8761 66.4062C12.0949 65.5625 9.61049 63.0781 8.81362 61.3438C7.96987 59.4688 7.78237 58.1562 8.25112 57.4531C8.48549 57.125 9.18862 56.6094 9.89174 56.2812H9.84487C9.61049 56.2344 9.51674 56.1875 9.70424 56.1406C9.89174 56.0469 10.0324 56.0938 10.1261 56.1406C10.6886 55.8594 11.1105 55.625 11.1105 55.625C11.1105 55.5781 11.298 54.5469 11.5792 53.3281C14.5792 38.8906 13.5949 20.1875 9.32924 11.2344C8.81362 10.2031 8.43862 9.21875 8.43862 9.07812C8.43862 8.42188 9.28237 8 10.5949 8ZM41.0167 62.75L41.9074 63.4531C42.9386 64.2031 44.0636 65.9844 44.2511 67.1562C44.3917 68.0938 43.8761 68.5625 41.4855 69.875C40.6417 70.3438 38.298 71.6562 36.2824 72.7812C31.923 75.2188 31.0324 75.5469 29.7667 74.9844C27.9855 74.2344 26.298 72.0312 25.923 69.9688C25.548 67.7188 26.3449 66.875 30.1886 65.4219C33.3292 64.25 35.7199 63.5938 38.5324 63.1719L41.0167 62.75Z" fill="#FFE31A"/>
</g>
<path d="M10.5949 8C13.1261 8.04688 15.9855 9.40625 18.4699 11.7031C21.9855 15.0781 23.1574 19.3438 23.3917 30.2188C23.5792 37.4844 23.0636 43.625 21.6574 49.8125C21.3761 50.9844 21.2355 51.9688 21.2824 52.0156C21.3292 52.0625 22.6886 51.7812 24.2824 51.3125C28.2667 50.2344 32.1574 49.4375 36.2824 48.875C39.4699 48.4531 39.798 48.3594 39.7511 47.9375C39.7042 47.7031 39.5167 46.3438 39.3292 44.8906C38.7667 40.4844 38.4855 32.4688 38.6261 22.9062C38.7199 13.25 38.8605 11.8906 39.8917 9.875C40.8761 7.95312 42.4699 7.53125 45.1417 8.60938C48.0949 9.82812 50.8605 12.4531 51.798 14.9375C52.8761 17.8438 52.8761 19.1094 51.4699 30.5469C50.5324 38.6094 50.0636 44 49.8761 49.4375C49.7824 51.7344 49.9699 54.0781 50.4855 56.8906C50.7667 57.875 50.7199 58.0156 50.3917 58.3438C49.548 59.1875 47.0636 58.625 44.7667 57.0312L43.548 56.1875C43.4074 56.1875 43.3136 56.1875 43.2667 56.1875L40.5949 56.9844C35.0636 58.625 28.0792 61.3906 20.2042 65.1406C18.048 66.1719 16.1261 66.9688 15.7042 66.9688C15.3292 66.9688 14.5324 66.7344 13.8761 66.4062C12.0949 65.5625 9.61049 63.0781 8.81362 61.3438C7.96987 59.4688 7.78237 58.1562 8.25112 57.4531C8.48549 57.125 9.18862 56.6094 9.89174 56.2812H9.84487C9.61049 56.2344 9.51674 56.1875 9.70424 56.1406C9.89174 56.0469 10.0324 56.0938 10.1261 56.1406C10.6886 55.8594 11.1105 55.625 11.1105 55.625C11.1105 55.5781 11.298 54.5469 11.5792 53.3281C14.5792 38.8906 13.5949 20.1875 9.32924 11.2344C8.81362 10.2031 8.43862 9.21875 8.43862 9.07812C8.43862 8.42188 9.28237 8 10.5949 8ZM41.0167 62.75L41.9074 63.4531C42.9386 64.2031 44.0636 65.9844 44.2511 67.1562C44.3917 68.0938 43.8761 68.5625 41.4855 69.875C40.6417 70.3438 38.298 71.6562 36.2824 72.7812C31.923 75.2188 31.0324 75.5469 29.7667 74.9844C27.9855 74.2344 26.298 72.0312 25.923 69.9688C25.548 67.7188 26.3449 66.875 30.1886 65.4219C33.3292 64.25 35.7199 63.5938 38.5324 63.1719L41.0167 62.75Z" fill="#FFE31A"/>
<defs>
<filter id="filter0_f_98_2286" x="0" y="0" width="60.5698" height="83.2212" filterUnits="userSpaceOnUse" color-interpolation-filters="sRGB">
<feFlood flood-opacity="0" result="BackgroundImageFix"/>
<feBlend mode="normal" in="SourceGraphic" in2="BackgroundImageFix" result="shape"/>
<feGaussianBlur stdDeviation="4" result="effect1_foregroundBlur_98_2286"/>
</filter>
</defs>
</svg>
