<svg width="100" height="41" viewBox="0 0 100 41" fill="none" xmlns="http://www.w3.org/2000/svg">
<path d="M51.0285 28.2453C51.4862 28.0146 52.0548 27.2018 52.2795 26.4572C52.3676 26.1653 53.1945 23.3363 54.1171 20.1705C55.1046 16.7824 55.9422 14.1158 56.1534 13.6882C56.7884 12.4024 57.7016 12.0118 60.0726 12.0118H61.3277V10.4293L59.2458 10.4354C57.3355 10.441 57.2521 10.519 56.6765 10.7946C55.7903 11.2191 55.1081 11.8842 54.6595 12.7612C54.442 13.1864 53.974 14.5534 53.596 15.8676C51.2237 24.1151 50.5805 26.2497 50.4104 26.4394C50.1448 26.7356 49.7415 26.7095 49.5291 26.3824C49.4325 26.2336 48.7561 24.0081 48.026 21.4368C46.206 15.0269 45.7523 13.536 45.4213 12.8767C45.0212 12.0798 44.1345 11.175 43.3996 10.8137C42.8022 10.52 42.7697 10.4494 40.7734 10.4382L38.6252 10.4261V11.9841L40.2587 12.0333C41.6434 12.0751 41.9765 12.1206 42.4459 12.3326C43.786 12.9376 43.8961 13.179 45.6619 19.3882C46.7463 23.201 47.6286 26.1684 47.8387 26.7087C48.1091 27.4043 48.5128 27.9484 48.9649 28.2267C49.4201 28.5068 50.4907 28.5165 51.0285 28.2453Z" fill="#5726D7"/>
<path d="M75.1153 30.6884C79.2882 29.562 82.1428 26.0258 82.4615 21.5879C82.7367 17.7565 81.5321 14.5308 79.018 12.3669C77.123 10.7358 74.9975 10 72.1806 10C69.3047 10 67.035 10.8327 65.1131 12.593C64.1192 13.5033 63.1282 14.9817 62.6329 16.293C61.7465 18.6397 61.7928 22.7593 62.7297 24.8932C64.1462 28.1197 66.6133 30.1293 70.0358 30.8446C71.1842 31.0846 73.9645 30.9991 75.1153 30.6884ZM70.298 29.1658C68.0997 28.7125 66.2738 27.4852 65.0893 25.6648C63.193 22.7507 63.2593 17.952 65.236 15.0401C66.3812 13.3531 68.3249 12.1364 70.4317 11.7877C71.4961 11.6116 73.8581 11.6973 74.7831 11.9456C77.3905 12.6456 79.5309 14.7805 80.358 17.5062C81.0478 19.7796 80.8366 22.8248 79.8515 24.8088C78.3806 27.7709 75.6723 29.3576 72.1432 29.3247C71.5242 29.3189 70.6939 29.2474 70.298 29.1658ZM73.3434 28.5409C76.4633 28.1555 78.7244 26.2936 79.6851 23.3186C79.9055 22.636 79.9728 22.1543 80.016 20.9507C80.0975 18.6783 79.7496 17.2539 78.7278 15.6768C77.7894 14.2285 76.5126 13.2582 74.8358 12.7192C73.9861 12.4461 73.7397 12.4178 72.236 12.4205C70.7481 12.4231 70.4769 12.4546 69.6362 12.7222C67.9703 13.2524 66.7397 14.1835 65.7691 15.6479C64.7336 17.2105 64.3748 18.6568 64.4538 20.9507C64.4972 22.2105 64.5558 22.6104 64.8066 23.3558C65.7978 26.3017 68.0292 28.1431 71.0945 28.5448C72.1046 28.6771 72.2425 28.6769 73.3434 28.5409ZM70.4853 26.7087C68.4686 26.1492 66.9212 24.5122 66.365 22.3499C66.1372 21.4647 66.1382 19.5409 66.3668 18.6617C66.9759 16.3194 68.6384 14.6548 70.8389 14.1841C74.2468 13.4551 77.3496 15.3704 78.1134 18.6744C78.3266 19.5965 78.3505 21.2015 78.1648 22.1264C77.7222 24.3311 76.0346 26.1496 73.8971 26.7247C73.1972 26.9131 71.188 26.9036 70.4853 26.7087Z" fill="#5726D7"/>
<path d="M52.0513 30.5875C52.9229 30.1545 53.5524 29.4852 54.0701 28.4411C54.5802 27.4124 54.8389 26.571 57.1108 18.55C58.0513 15.2295 58.0422 15.2546 58.4634 14.8469C58.7825 14.5381 58.8406 14.5251 60.0611 14.4889L61.3277 14.4513V12.7655L59.7879 12.815C58.4279 12.8588 58.1866 12.8966 57.7214 13.1382C56.7766 13.6289 56.6292 13.963 55.3546 18.5033C52.8758 27.3335 52.8027 27.5546 52.0734 28.4293C51.4644 29.1597 50.1915 29.5094 49.1635 29.2288C48.4735 29.0405 47.7719 28.3393 47.3224 27.3887C47.0051 26.7178 45.8787 22.9024 43.921 15.8676C43.4936 14.3319 43.2931 13.9274 42.7085 13.4225C42.1334 12.9256 41.8075 12.8553 40.0649 12.8524L38.6806 12.85L38.6155 14.4706H39.7313C40.4519 14.4706 40.9824 14.5276 41.2288 14.6315C41.6192 14.7961 42.0126 15.3131 42.1269 15.8117C42.3015 16.5741 45.3149 26.8803 45.5381 27.4788C46.2484 29.3833 47.0236 30.2856 48.3864 30.7942C48.8662 30.9733 49.2032 31.0097 50.1468 30.9848C51.2093 30.9566 51.3801 30.921 52.0513 30.5875Z" fill="#5726D7"/>
<path d="M30.1533 30.8001C32.0262 30.408 33.5834 29.5915 34.9428 28.2886C36.3017 26.9862 37.2467 25.3425 37.7465 23.4117C38.1212 21.964 38.1673 19.6989 37.8533 18.1615C37.0077 14.0218 34.0793 10.9853 30.1845 10.2094C28.6751 9.90872 26.0807 9.96473 24.7268 10.3272C21.4729 11.1984 18.732 13.9724 17.9273 17.2088C16.645 22.3655 18.297 27.0928 22.2363 29.5394C23.1452 30.1039 24.7486 30.7104 25.7974 30.8864C26.8844 31.0688 29.077 31.0254 30.1533 30.8001ZM25.6327 29.1186C24.054 28.7717 22.9247 28.1408 21.7245 26.9352C20.8942 26.1012 20.6346 25.7529 20.2582 24.9681C19.0613 22.4726 18.9346 19.4952 19.9104 16.797C20.6602 14.7235 22.343 12.9798 24.3163 12.2317C26.3283 11.4689 29.3855 11.4907 31.3145 12.2818C34.4427 13.5646 36.2996 16.6279 36.2996 20.5058C36.2996 22.5541 35.8593 24.1856 34.9043 25.6764C33.8453 27.3296 32.349 28.4417 30.4271 29.0039C29.2227 29.3562 26.9606 29.4103 25.6327 29.1186ZM30.0596 28.3246C32.1156 27.7948 33.7764 26.4734 34.6953 24.6363C35.4104 23.2066 35.5786 22.4311 35.5789 20.5617C35.5793 18.5882 35.4421 17.9465 34.6894 16.3996C33.8208 14.6146 32.3782 13.372 30.4301 12.731C29.5858 12.4531 29.3233 12.4202 27.883 12.4121C26.5174 12.4043 26.1453 12.4415 25.3952 12.6606C24.058 13.0513 23.2872 13.5126 22.2843 14.5224C21.2591 15.5546 20.6034 16.7023 20.225 18.1267C19.8979 19.358 19.8979 21.6537 20.225 22.8849C20.901 25.4294 22.6021 27.3084 24.978 28.1349C26.5893 28.6954 28.3636 28.7617 30.0596 28.3246ZM25.945 26.6652C24.9754 26.3802 24.3748 26.0323 23.6539 25.3384C22.8385 24.5534 22.4376 23.9159 22.0557 22.797C21.7853 22.0049 21.7508 21.7436 21.753 20.5058C21.7552 19.2962 21.7953 18.9865 22.0522 18.1971C22.414 17.0857 23.0564 16.0871 23.8212 15.4473C24.6038 14.7928 25.1672 14.505 26.1759 14.2446C29.662 13.3448 32.9767 15.3522 33.701 18.8019C33.9024 19.7609 33.9037 21.2445 33.7041 22.1952C33.2462 24.3752 31.582 26.1538 29.4842 26.7053C28.5988 26.938 26.8041 26.9177 25.945 26.6652Z" fill="#5726D7"/>
</svg>
